<?xml version="1.0" encoding="UTF-8"?>
<svg xmlns="http://www.w3.org/2000/svg" width="627" height="672" viewBox="0 0 627 672">
<rect x="0" y="0" width="100%" height="100%" fill="#F8F9FB"/>
<text x="32" y="38" font-size="18" font-family="Segoe UI, sans-serif" fill="#1F2937">Bin 02 (Dest Y, 12/12 kg) isometric</text>
<line x1="257.17" y1="261.00" x2="594.92" y2="456.00" stroke="#CBD5E1" stroke-width="1.5"/>
<line x1="257.17" y1="261.00" x2="32.00" y2="391.00" stroke="#CBD5E1" stroke-width="1.5"/>
<line x1="257.17" y1="261.00" x2="257.17" y2="66.00" stroke="#CBD5E1" stroke-width="1.5"/>
<line x1="594.92" y1="456.00" x2="369.75" y2="586.00" stroke="#CBD5E1" stroke-width="1.5"/>
<line x1="594.92" y1="456.00" x2="594.92" y2="261.00" stroke="#CBD5E1" stroke-width="1.5"/>
<line x1="32.00" y1="391.00" x2="369.75" y2="586.00" stroke="#CBD5E1" stroke-width="1.5"/>
<line x1="32.00" y1="391.00" x2="32.00" y2="196.00" stroke="#CBD5E1" stroke-width="1.5"/>
<line x1="369.75" y1="586.00" x2="369.75" y2="391.00" stroke="#CBD5E1" stroke-width="1.5"/>
<line x1="257.17" y1="66.00" x2="594.92" y2="261.00" stroke="#CBD5E1" stroke-width="1.5"/>
<line x1="257.17" y1="66.00" x2="32.00" y2="196.00" stroke="#CBD5E1" stroke-width="1.5"/>
<line x1="594.92" y1="261.00" x2="369.75" y2="391.00" stroke="#CBD5E1" stroke-width="1.5"/>
<line x1="32.00" y1="196.00" x2="369.75" y2="391.00" stroke="#CBD5E1" stroke-width="1.5"/>
<polygon points="257.17,261.00 144.58,326.00 144.58,196.00 257.17,131.00" fill="#99908D" stroke="#111827" stroke-width="1"/>
<polygon points="257.17,261.00 594.92,456.00 594.92,326.00 257.17,131.00" fill="#AFA5A2" stroke="#111827" stroke-width="1"/>
<polygon points="257.17,131.00 594.92,326.00 482.33,391.00 144.58,196.00" fill="#CDC2BD" stroke="#111827" stroke-width="1"/>
<text x="369.75" y="261.00" text-anchor="middle" dominant-baseline="middle" font-size="10" font-family="Consolas, monospace" fill="#111827">YC</text>
<polygon points="144.58,326.00 32.00,391.00 32.00,196.00 144.58,131.00" fill="#99908D" stroke="#111827" stroke-width="1"/>
<polygon points="144.58,326.00 257.17,391.00 257.17,196.00 144.58,131.00" fill="#AFA5A2" stroke="#111827" stroke-width="1"/>
<polygon points="144.58,131.00 257.17,196.00 144.58,261.00 32.00,196.00" fill="#CDC2BD" stroke="#111827" stroke-width="1"/>
<text x="144.58" y="196.00" text-anchor="middle" dominant-baseline="middle" font-size="10" font-family="Consolas, monospace" fill="#111827">YA</text>
<polygon points="257.17,131.00 144.58,196.00 144.58,131.00 257.17,66.00" fill="#99908D" stroke="#111827" stroke-width="1"/>
<polygon points="257.17,131.00 594.92,326.00 594.92,261.00 257.17,66.00" fill="#AFA5A2" stroke="#111827" stroke-width="1"/>
<polygon points="257.17,66.00 594.92,261.00 482.33,326.00 144.58,131.00" fill="#CDC2BD" stroke="#111827" stroke-width="1"/>
<text x="369.75" y="196.00" text-anchor="middle" dominant-baseline="middle" font-size="10" font-family="Consolas, monospace" fill="#111827">YB</text>
<text x="32" y="622" font-size="13" font-family="Segoe UI, sans-serif" fill="#374151">Dest: Y  Items: 3  Volume utilization: 66.7%</text>
<text x="32" y="640" font-size="12" font-family="Consolas, monospace" fill="#6B7280">L=6mm W=4mm H=3mm</text>
</svg>